# xmcd CD database file
#
# Track frame offsets:
#	150
#	23810
#	45800
#	73155
#	99815
#	116752
#	127175
#	151772
#	173785
#	200287
#	216685
#	240667
#
# Disc length: 3458 seconds
#
# Revision: 0
# Processed by: cddbd v1.5.2PL0 Copyright (c) Steve Scherf et al.
# Submitted via: CDex 1.51
#
DISCID=a10d800c
DTITLE=Various Artist - The Jazz Beatles Collection Vol. IV
DYEAR=1999
DGENRE=Jazz
TTITLE0=Eleanor Rigby - Zachery Breaux
TTITLE1=Come Together - Mark Whitfield
TTITLE2=She's Leaving Home - Toninho Horta
TTITLE3=Here, There and Everywhere - Ralph Towner
TTITLE4=Sgt. Pepper's Lonely Hearts Club Band - Joe Sample - Ernie Watts
TTITLE5=Blackbird - Adrian Belew
TTITLE6=And I Love Her - John Abercrombie
TTITLE7=Michelle - Allan Holdsworth
TTITLE8=Norwegian Wood - Leni Stern
TTITLE9=When I'm Sixty Four - Joe Pasquale - Paulinho Da Costa
TTITLE10=Hey Jude - Tom Scott - Paulinho Da Costa
TTITLE11=Yesterday - Toots Thielemans
EXTD=YEAR: 1999
EXTT0=
EXTT1=
EXTT2=
EXTT3=
EXTT4=
EXTT5=
EXTT6=
EXTT7=
EXTT8=
EXTT9=
EXTT10=
EXTT11=
PLAYORDER=
